<svg width="17" height="16" viewBox="0 0 17 16" fill="none" xmlns="http://www.w3.org/2000/svg">
<path fill-rule="evenodd" clip-rule="evenodd" d="M5.79343 8.70672C5.60616 8.51922 5.50098 8.26506 5.50098 8.00006C5.50098 7.73505 5.60616 7.48089 5.79343 7.29339L9.5641 3.52139C9.75169 3.33388 10.0061 3.22858 10.2713 3.22864C10.4027 3.22867 10.5327 3.25457 10.654 3.30485C10.7754 3.35514 10.8856 3.42883 10.9784 3.52172C11.0713 3.61461 11.1449 3.72488 11.1951 3.84622C11.2454 3.96757 11.2712 4.09763 11.2712 4.22896C11.2712 4.36029 11.2453 4.49033 11.195 4.61166C11.1447 4.73298 11.071 4.84321 10.9781 4.93606L7.91476 8.00006L10.9788 11.0641C11.0743 11.1563 11.1506 11.2666 11.203 11.3885C11.2555 11.5105 11.2831 11.6417 11.2843 11.7745C11.2856 11.9073 11.2603 12.039 11.2101 12.1619C11.1599 12.2848 11.0857 12.3965 10.9918 12.4904C10.898 12.5844 10.7864 12.6587 10.6635 12.709C10.5406 12.7594 10.409 12.7847 10.2762 12.7836C10.1434 12.7825 10.0122 12.755 9.89013 12.7027C9.7681 12.6503 9.65772 12.5742 9.56543 12.4787L5.7921 8.70672H5.79343Z" fill="#535353"/>
</svg>
