<svg width="16" height="16" viewBox="0 0 16 16" fill="none" xmlns="http://www.w3.org/2000/svg">
<path d="M8.00016 14.6667C7.84461 14.6667 7.71127 14.6223 7.60016 14.5334C7.48905 14.4445 7.40572 14.3278 7.35016 14.1834C7.13905 13.5612 6.87239 12.9778 6.55016 12.4334C6.23905 11.8889 5.80016 11.25 5.2335 10.5167C4.66683 9.78337 4.20572 9.08337 3.85016 8.41671C3.50572 7.75004 3.3335 6.94448 3.3335 6.00004C3.3335 4.70004 3.7835 3.60004 4.6835 2.70004C5.59461 1.78893 6.70016 1.33337 8.00016 1.33337C9.30016 1.33337 10.4002 1.78893 11.3002 2.70004C12.2113 3.60004 12.6668 4.70004 12.6668 6.00004C12.6668 7.01115 12.4724 7.8556 12.0835 8.53337C11.7057 9.20004 11.2668 9.86115 10.7668 10.5167C10.1668 11.3167 9.71127 11.9834 9.40016 12.5167C9.10016 13.0389 8.85016 13.5945 8.65016 14.1834C8.59461 14.3389 8.50572 14.4612 8.3835 14.55C8.27239 14.6278 8.14461 14.6667 8.00016 14.6667ZM8.00016 7.66671C8.46683 7.66671 8.86127 7.5056 9.1835 7.18337C9.50572 6.86115 9.66683 6.46671 9.66683 6.00004C9.66683 5.53337 9.50572 5.13893 9.1835 4.81671C8.86127 4.49448 8.46683 4.33337 8.00016 4.33337C7.5335 4.33337 7.13905 4.49448 6.81683 4.81671C6.49461 5.13893 6.3335 5.53337 6.3335 6.00004C6.3335 6.46671 6.49461 6.86115 6.81683 7.18337C7.13905 7.5056 7.5335 7.66671 8.00016 7.66671Z" fill="#ffffff"/>
</svg>
