<svg width="24" height="24" viewBox="0 0 24 24" fill="none" xmlns="http://www.w3.org/2000/svg">
<path d="M8.99976 19.9999C9.26498 19.9999 9.51934 20.1053 9.70687 20.2928C9.89441 20.4804 9.99976 20.7347 9.99976 20.9999C9.99976 21.2652 9.89441 21.5195 9.70687 21.7071C9.51934 21.8946 9.26498 21.9999 8.99976 21.9999C8.73455 21.9999 8.48019 21.8946 8.29266 21.7071C8.10512 21.5195 7.99976 21.2652 7.99976 20.9999C7.99976 20.7347 8.10512 20.4804 8.29266 20.2928C8.48019 20.1053 8.73455 19.9999 8.99976 19.9999ZM15.9998 19.9999C16.265 19.9999 16.5193 20.1053 16.7069 20.2928C16.8944 20.4804 16.9998 20.7347 16.9998 20.9999C16.9998 21.2652 16.8944 21.5195 16.7069 21.7071C16.5193 21.8946 16.265 21.9999 15.9998 21.9999C15.7345 21.9999 15.4802 21.8946 15.2927 21.7071C15.1051 21.5195 14.9998 21.2652 14.9998 20.9999C14.9998 20.7347 15.1051 20.4804 15.2927 20.2928C15.4802 20.1053 15.7345 19.9999 15.9998 19.9999ZM3.49476 2.63094L3.59976 2.70094L5.30777 3.98094C5.59843 4.19904 5.82418 4.4922 5.96076 4.82894L6.02076 4.99994H18.8668C19.1379 4.99988 19.4062 5.05493 19.6553 5.16175C19.9045 5.26858 20.1294 5.42495 20.3162 5.62136C20.5031 5.81777 20.6481 6.05012 20.7424 6.3043C20.8367 6.55848 20.8783 6.82918 20.8648 7.09994L20.8518 7.24794L20.3948 10.9029C20.2576 12.0029 19.7589 13.026 18.9769 13.8116C18.1949 14.5972 17.174 15.1007 16.0748 15.2429L15.8488 15.2659L8.53577 15.8759L8.79576 16.9999H17.4998C17.7546 17.0002 17.9998 17.0978 18.1851 17.2728C18.3705 17.4478 18.482 17.6869 18.4969 17.9413C18.5119 18.1958 18.4291 18.4463 18.2655 18.6418C18.1019 18.8372 17.8699 18.9628 17.6168 18.9929L17.4998 18.9999H8.79576C8.37137 19 7.95795 18.8651 7.61531 18.6147C7.27267 18.3642 7.01857 18.0113 6.88976 17.6069L6.84677 17.4499L4.10676 5.57994L2.39977 4.29994C2.20466 4.15371 2.06971 3.94124 2.02028 3.70248C1.97085 3.46372 2.01035 3.21513 2.13136 3.00345C2.25237 2.79178 2.44655 2.63161 2.67737 2.55306C2.9082 2.47452 3.15976 2.48301 3.38476 2.57694L3.49476 2.63094ZM18.8668 6.99994H6.48676L8.08176 13.9059L15.6818 13.2729C16.3677 13.2159 17.0131 12.9247 17.5098 12.4482C18.0065 11.9717 18.3243 11.3389 18.4098 10.6559L18.8668 6.99994Z" fill="#FFE001"/>
</svg>
